<?xml version="1.0" encoding="iso-8859-1"?>
<!-- Generator: Adobe Illustrator 18.0.0, SVG Export Plug-In . SVG Version: 6.00 Build 0)  -->
<!DOCTYPE svg PUBLIC "-//W3C//DTD SVG 1.1//EN" "http://www.w3.org/Graphics/SVG/1.1/DTD/svg11.dtd">
<svg version="1.1" id="Capa_1" xmlns="http://www.w3.org/2000/svg" xmlns:xlink="http://www.w3.org/1999/xlink" x="0px" y="0px"
	 viewBox="0 0 144.773 144.773" style="enable-background:new 0 0 144.773 144.773;" xml:space="preserve">
<g>
	<circle style="fill:#FC611F;" cx="72.387" cy="72.386" r="72.386"/>
	<g>
		<defs>
			<circle id="SVGID_1_" cx="72.387" cy="72.386" r="72.386"/>
		</defs>
		<clipPath id="SVGID_2_">
			<use xlink:href="#SVGID_1_"  style="overflow:visible;"/>
		</clipPath>
		<g style="clip-path:url(#SVGID_2_);">
			<g>
				<path style="fill:#F1C9A5;" d="M107.053,116.94c-4.666-8.833-34.666-14.376-34.666-14.376s-30,5.543-34.666,14.376
					c-3.449,12.258-6.334,27.833-6.334,27.833h41h41C113.387,144.773,111.438,128.073,107.053,116.94z"/>
				<path style="fill:#E4B692;" d="M72.387,102.564c0,0,30,5.543,34.666,14.376c4.386,11.133,6.334,27.833,6.334,27.833h-41V102.564
					z"/>
				<rect x="64.22" y="84.606" style="fill:#F1C9A5;" width="16.334" height="27.336"/>
				<rect x="72.387" y="84.606" style="fill:#E4B692;" width="8.167" height="27.336"/>
				<path style="opacity:0.1;fill:#DDAC8C;" d="M64.22,97.273c1.469,4.217,7.397,6.634,11.751,6.634
					c1.575,0,3.107-0.264,4.583-0.747V84.606H64.22V97.273z"/>
				<path style="fill:#F1C9A5;" d="M93.387,67.357c0-17.074-9.402-26.783-21-26.783c-11.598,0-21,9.709-21,26.783
					c0,22.966,9.402,30.917,21,30.917C83.984,98.274,93.387,89.366,93.387,67.357z"/>
				<path style="fill:#E4B692;" d="M90.19,79.197c-3.807-0.398-6.377-4.5-5.732-9.156c0.637-4.66,4.242-8.12,8.051-7.724
					c3.805,0.396,6.371,4.496,5.729,9.156C97.599,76.134,93.997,79.591,90.19,79.197z"/>
				<path style="fill:#F1C9A5;" d="M46.685,71.474c-0.643-4.66,1.924-8.76,5.727-9.156c3.811-0.397,7.416,3.063,8.055,7.724
					c0.642,4.656-1.93,8.758-5.734,9.156C50.925,79.591,47.323,76.134,46.685,71.474z"/>
				<path style="fill:#E4B692;" d="M93.387,67.357c0-17.074-9.402-26.783-21-26.783v57.7C83.984,98.274,93.387,89.366,93.387,67.357
					z"/>
			</g>
			<path style="fill:#2E5870;" d="M91.277,81.668c-1.13,3.176-3.041,6.994-6.494,6.994c-4.316,0-7.403-3.508-12.354-3.508
				c-0.014,0-0.027,0.002-0.041,0.002c-0.015,0-0.028-0.002-0.043-0.002c-4.95,0-8.036,3.508-12.354,3.508
				c-3.453,0-5.363-3.818-6.493-6.994l-0.978-6.118v7.321c0,0,1.641,8.622,4.79,10.705c2.565,2.279,10.938,6.183,15.033,6.183h0.001
				c0.014,0,0.028-0.002,0.043-0.002c0.014,0,0.028,0.002,0.041,0.002h0.002c4.096,0,12.469-3.903,15.033-6.183
				c3.149-2.083,4.79-10.705,4.79-10.705V75.55L91.277,81.668z"/>
			<path style="fill:#11B2BC;" d="M107.053,116.94c-2.726-5.158-14.082-9.191-23.065-11.656c-0.351,6.11-5.402,10.96-11.6,10.96
				c-6.198,0-11.249-4.85-11.601-10.96c-8.983,2.465-20.34,6.498-23.065,11.656c-3.449,12.258-6.334,27.833-6.334,27.833h41h41
				C113.387,144.773,111.438,128.073,107.053,116.94z"/>
			<path style="fill:#1695A6;" d="M32.264,140.273c-0.555,2.763-0.877,4.5-0.877,4.5h41h41c0,0-0.205-1.756-0.631-4.5H32.264z"/>
			<path style="fill:#1695A6;" d="M33.192,135.773H112c-0.257-1.414-0.551-2.93-0.882-4.5H34.17
				C33.817,132.855,33.49,134.367,33.192,135.773z"/>
			<path style="fill:#1695A6;" d="M35.202,126.773h74.888c-0.374-1.507-0.78-3.019-1.221-4.5H36.302
				C35.922,123.775,35.554,125.284,35.202,126.773z"/>
			<path style="fill:#1695A6;" d="M72.387,116.244c-2.979,0-5.687-1.128-7.741-2.971h-23.41c-1.6,1.146-2.83,2.371-3.515,3.667
				c-0.077,0.275-0.154,0.555-0.231,0.833h69.881c-0.104-0.28-0.21-0.56-0.317-0.833c-0.685-1.296-1.915-2.521-3.515-3.667h-23.41
				C78.073,115.116,75.366,116.244,72.387,116.244z"/>
			<g>
				<path style="fill:#1695A6;" d="M50.066,108.773h11.477c-0.42-1.095-0.687-2.265-0.757-3.489
					C57.354,106.226,53.577,107.398,50.066,108.773z"/>
				<path style="fill:#1695A6;" d="M83.23,108.773h11.478c-3.512-1.375-7.288-2.548-10.721-3.489
					C83.917,106.509,83.65,107.679,83.23,108.773z"/>
			</g>
			<path style="fill:#1695A6;" d="M57.37,106.269c1.138,7.28,7.418,12.856,15.017,12.856c7.599,0,13.879-5.576,15.017-12.856
				c-1.161-0.352-2.307-0.68-3.416-0.984c-0.351,6.11-5.402,10.96-11.6,10.96c-6.198,0-11.249-4.85-11.601-10.96
				C59.677,105.589,58.531,105.917,57.37,106.269z"/>
			<path style="fill:#2E5870;" d="M50.329,65.554c0,0,21.346-4.051,32.558-13.538c3.162,7.188,5.1,14.975,10.274,14.975
				c2.588-14.373-4.312-26.663-17.822-26.663C61.827,40.327,50.616,47.154,50.329,65.554z"/>
		</g>
	</g>
</g>
<g>
</g>
<g>
</g>
<g>
</g>
<g>
</g>
<g>
</g>
<g>
</g>
<g>
</g>
<g>
</g>
<g>
</g>
<g>
</g>
<g>
</g>
<g>
</g>
<g>
</g>
<g>
</g>
<g>
</g>
</svg>
