<?xml version="1.0" encoding="iso-8859-1"?>
<!-- Generator: Adobe Illustrator 18.0.0, SVG Export Plug-In . SVG Version: 6.00 Build 0)  -->
<!DOCTYPE svg PUBLIC "-//W3C//DTD SVG 1.1//EN" "http://www.w3.org/Graphics/SVG/1.1/DTD/svg11.dtd">
<svg version="1.1" id="Capa_1" xmlns="http://www.w3.org/2000/svg" xmlns:xlink="http://www.w3.org/1999/xlink" x="0px" y="0px"
	 viewBox="0 0 144.773 144.773" style="enable-background:new 0 0 144.773 144.773;" xml:space="preserve">
<g>
	<circle style="fill:#FDC111;" cx="72.387" cy="72.386" r="72.386"/>
	<g>
		<defs>
			<circle id="SVGID_1_" cx="72.387" cy="72.386" r="72.386"/>
		</defs>
		<clipPath id="SVGID_2_">
			<use xlink:href="#SVGID_1_"  style="overflow:visible;"/>
		</clipPath>
		<g style="clip-path:url(#SVGID_2_);">
			<g>
				<path style="fill:#F1C9A5;" d="M107.053,116.94c-4.666-8.833-34.666-14.376-34.666-14.376s-30,5.543-34.666,14.376
					c-3.449,12.258-6.334,27.833-6.334,27.833h41h41C113.387,144.773,111.438,128.073,107.053,116.94z"/>
				<path style="fill:#E4B692;" d="M72.387,102.564c0,0,30,5.543,34.666,14.376c4.386,11.133,6.334,27.833,6.334,27.833h-41V102.564
					z"/>
				<rect x="64.22" y="84.607" style="fill:#F1C9A5;" width="16.334" height="27.336"/>
				<rect x="72.387" y="84.607" style="fill:#E4B692;" width="8.167" height="27.336"/>
				<path style="opacity:0.1;fill:#DDAC8C;" d="M64.22,97.273c1.469,4.217,7.397,6.634,11.751,6.634
					c1.575,0,3.107-0.264,4.583-0.747V84.606H64.22V97.273z"/>
				<path style="fill:#F1C9A5;" d="M93.387,67.357c0-17.074-9.402-26.783-21-26.783c-11.598,0-21,9.709-21,26.783
					c0,22.966,9.402,30.917,21,30.917C83.984,98.274,93.387,89.366,93.387,67.357z"/>
				<path style="fill:#F1C9A5;" d="M93.387,67.357c0-17.074-9.402-26.783-21-26.783c-11.598,0-21,9.709-21,26.783
					c0,22.966,9.402,30.917,21,30.917C83.984,98.274,93.387,89.366,93.387,67.357z"/>
				<path style="fill:#E4B692;" d="M90.19,79.197c-3.807-0.399-6.377-4.5-5.732-9.156c0.637-4.66,4.242-8.12,8.051-7.724
					c3.805,0.396,6.371,4.496,5.729,9.156C97.599,76.134,93.997,79.591,90.19,79.197z"/>
				<path style="fill:#F1C9A5;" d="M46.685,71.474c-0.643-4.66,1.924-8.76,5.727-9.156c3.81-0.397,7.416,3.063,8.055,7.724
					c0.643,4.656-1.93,8.758-5.734,9.156C50.925,79.591,47.323,76.134,46.685,71.474z"/>
				<path style="fill:#E4B692;" d="M93.387,67.357c0-17.074-9.402-26.783-21-26.783v57.7C83.984,98.274,93.387,89.366,93.387,67.357
					z"/>
				<path style="fill:#102F41;" d="M107.053,116.94c-2.99-5.66-16.375-9.966-25.61-12.331c-0.359,4.691-4.273,8.389-9.056,8.389
					s-8.696-3.697-9.056-8.389c-9.235,2.365-22.62,6.671-25.61,12.331c-3.449,12.258-6.334,27.833-6.334,27.833h41h41
					C113.387,144.773,111.438,128.073,107.053,116.94z"/>
			</g>
			<g>
				<path style="fill:#231F20;" d="M53.105,70.152v3.78c0,1.73,1.417,3.146,3.147,3.146h10.46c1.732,0,3.148-1.416,3.148-3.146
					v-2.536h0.01c0-1.391,1.127-2.517,2.519-2.517v-2.541c-2.112,0-2.314-1.32-4.491-1.32h-1.185h-0.62h-9.84
					c-1.73,0-3.147,1.416-3.147,3.146v0.414"/>
				<path style="fill:#231F20;" d="M91.668,68.579v-0.414c0-1.73-1.417-3.146-3.147-3.146h-9.84h-0.62h-1.183
					c-2.178,0-2.381,1.32-4.489,1.32v2.541c1.389,0,2.515,1.126,2.515,2.517h0.01v2.536c0,1.73,1.417,3.146,3.147,3.146h10.46
					c1.73,0,3.147-1.416,3.147-3.146v-3.78"/>
			</g>
			<path style="fill:#262421;" d="M72.387,39.974c-11.246,0-21.746,9.875-20.974,25.854c0.106,1.015,0.201,2.063,0.268,3.195
				c0,0,2.888-5.551,4.12-16.22c8.713,8.279,18.979,9.604,32.546,0c0.323,7.53,2.467,12.312,5.022,15.866
				c0.008-0.435-0.023-0.868,0.018-1.312C95.016,49.849,83.984,39.974,72.387,39.974z"/>
		</g>
	</g>
</g>
<g>
</g>
<g>
</g>
<g>
</g>
<g>
</g>
<g>
</g>
<g>
</g>
<g>
</g>
<g>
</g>
<g>
</g>
<g>
</g>
<g>
</g>
<g>
</g>
<g>
</g>
<g>
</g>
<g>
</g>
</svg>
